<?xml version="1.0" encoding="UTF-8"?>
<svg version="1.1" xmlns="http://www.w3.org/2000/svg" width="500" height="500">
<path d="M0 0 C18.81 0 37.62 0 57 0 C57 17.82 57 35.64 57 54 C75.15 54 93.3 54 112 54 C112 36.18 112 18.36 112 0 C130.48 0 148.96 0 168 0 C168 17.82 168 35.64 168 54 C194.73 53.505 194.73 53.505 222 53 C222.33 35.51 222.66 18.02 223 0 C241.81 0 260.62 0 280 0 C280 36.3 280 72.6 280 110 C316.3 110 352.6 110 390 110 C390 128.81 390 147.62 390 167 C372.18 167 354.36 167 336 167 C336 185.15 336 203.3 336 222 C353.82 222 371.64 222 390 222 C390 240.48 390 258.96 390 278 C372.18 278 354.36 278 336 278 C336 296.15 336 314.3 336 333 C362.73 332.505 362.73 332.505 390 332 C390 351.14 390 370.28 390 390 C353.7 390 317.4 390 280 390 C280 426.3 280 462.6 280 500 C261.19 500 242.38 500 223 500 C223 482.18 223 464.36 223 446 C204.85 446 186.7 446 168 446 C168 463.82 168 481.64 168 500 C149.52 500 131.04 500 112 500 C112 482.18 112 464.36 112 446 C93.85 446 75.7 446 57 446 C57 463.82 57 481.64 57 500 C38.19 500 19.38 500 0 500 C0 463.7 0 427.4 0 390 C-36.3 390 -72.6 390 -110 390 C-110 370.86 -110 351.72 -110 332 C-92.51 332 -75.02 332 -57 332 C-56.67 314.18 -56.34 296.36 -56 278 C-73.82 278.33 -91.64 278.66 -110 279 C-110 260.19 -110 241.38 -110 222 C-92.18 222 -74.36 222 -56 222 C-56 203.85 -56 185.7 -56 167 C-73.82 167.33 -91.64 167.66 -110 168 C-110 148.86 -110 129.72 -110 110 C-73.7 110 -37.4 110 0 110 C0 73.7 0 37.4 0 0 Z M2 112 C2 203.08 2 294.16 2 388 C93.08 388 184.16 388 278 388 C278 296.92 278 205.84 278 112 C186.92 112 95.84 112 2 112 Z " fill="#42B3FE" transform="translate(110,0)"/>
<path d="M0 0 C0.99 0 1.98 0 3 0 C3.33 36.3 3.66 72.6 4 110 C38.21794745 110.04406515 72.43586744 110.08100336 106.65383472 110.10213066 C110.6906913 110.10463217 114.72754781 110.1072208 118.7644043 110.10986328 C119.56809274 110.1103879 120.37178118 110.11091252 121.19982382 110.11145304 C134.22462402 110.12016312 147.24940662 110.13593641 160.27419636 110.15430559 C173.63208634 110.17298788 186.98996707 110.18411318 200.34786958 110.18817699 C208.59490946 110.19092553 216.84189961 110.19961634 225.08892419 110.21583293 C230.73901159 110.2263792 236.38907317 110.22960599 242.03916971 110.22700275 C245.30228478 110.22571777 248.56529399 110.22881328 251.82839775 110.23841095 C255.36132117 110.24829658 258.89402821 110.24599226 262.42695618 110.24050903 C263.98384603 110.24924756 263.98384603 110.24924756 265.5721882 110.25816262 C266.51519475 110.25418052 267.45820131 110.25019842 268.42978382 110.24609566 C269.24580281 110.2468551 270.0618218 110.24761454 270.90256864 110.24839699 C273.30386088 110.12458951 273.30386088 110.12458951 276 108 C276.46120839 106.00208287 276.46120839 106.00208287 276.39872742 103.65939331 C276.41126556 102.74791534 276.42380371 101.83643738 276.4367218 100.89733887 C276.43528671 99.89464966 276.43385162 98.89196045 276.43237305 97.85888672 C276.4425647 96.80520905 276.45275635 95.75153137 276.46325684 94.66592407 C276.4935391 91.17045887 276.50267612 87.67526699 276.51171875 84.1796875 C276.52855412 81.76114988 276.54670279 79.34262108 276.56611633 76.92410278 C276.61374631 70.5487544 276.64347158 64.17344173 276.66955566 57.79797363 C276.69929571 51.29623356 276.74584844 44.79461671 276.79101562 38.29296875 C276.87719658 25.52871267 276.94504653 12.76442674 277 0 C277.99 0 278.98 0 280 0 C280 36.3 280 72.6 280 110 C316.3 110 352.6 110 390 110 C390 110.99 390 111.98 390 113 C353.7 113 317.4 113 280 113 C279.67 203.42 279.34 293.84 279 387 C315.63 387 352.26 387 390 387 C390 387.99 390 388.98 390 390 C353.7 390 317.4 390 280 390 C280 426.3 280 462.6 280 500 C279.34 500 278.68 500 278 500 C277.98969254 498.71040375 277.97938507 497.4208075 277.96876526 496.09213257 C277.8710055 483.93841855 277.76826891 471.78475543 277.66066074 459.6311245 C277.60549844 453.3828442 277.55208913 447.13455916 277.50268555 440.88623047 C277.45494331 434.85617675 277.40259694 428.82617896 277.34705925 422.79619217 C277.32668036 420.49572772 277.30796 418.19524796 277.29092598 415.89475632 C277.26678305 412.67245707 277.23674203 409.45026271 277.20532227 406.22802734 C277.1995668 405.27712219 277.19381134 404.32621704 277.18788147 403.34649658 C277.17809265 402.46317657 277.16830383 401.57985657 277.15821838 400.66976929 C277.15176583 399.90836828 277.14531328 399.14696728 277.1386652 398.36249352 C276.97382856 395.55410694 276.4624905 392.77494302 276 390 C185.58 389.67 95.16 389.34 2 389 C2 425.63 2 462.26 2 500 C1.34 500 0.68 500 0 500 C0 463.7 0 427.4 0 390 C-36.3 390 -72.6 390 -110 390 C-110 389.34 -110 388.68 -110 388 C18.04 388 146.08 388 278 388 C278 296.92 278 205.84 278 112 C191.46459085 112.32681057 191.46459085 112.32681057 104.92919922 112.65820312 C84.53690423 112.7346256 84.53690423 112.7346256 75.74075556 112.76621437 C74.71466912 112.76989993 74.71466912 112.76989993 73.66785365 112.77365994 C72.62183641 112.77741702 72.62183641 112.77741702 71.5546875 112.78125 C70.83418046 112.78384787 70.11367341 112.78644575 69.37133282 112.78912234 C9.580698 113.00456255 -50.20895499 113.06297578 -110 113 C-110 112.01 -110 111.02 -110 110 C-73.7 110 -37.4 110 0 110 C0 73.7 0 37.4 0 0 Z " fill="#6BBBEB" transform="translate(110,0)"/>
<path d="M0 0 C0 0.99 0 1.98 0 3 C-36.3 3 -72.6 3 -110 3 C-110 39.3 -110 75.6 -110 113 C-110.66 113 -111.32 113 -112 113 C-112.01030746 111.71040375 -112.02061493 110.4208075 -112.03123474 109.09213257 C-112.1289945 96.93841855 -112.23173109 84.78475543 -112.33933926 72.6311245 C-112.39450156 66.3828442 -112.44791087 60.13455916 -112.49731445 53.88623047 C-112.54505669 47.85617675 -112.59740306 41.82617896 -112.65294075 35.79619217 C-112.67331964 33.49572772 -112.69204 31.19524796 -112.70907402 28.89475632 C-112.73321695 25.67245707 -112.76325797 22.45026271 -112.79467773 19.22802734 C-112.8004332 18.27712219 -112.80618866 17.32621704 -112.81211853 16.34649658 C-112.82680176 15.02151657 -112.82680176 15.02151657 -112.84178162 13.66976929 C-112.84823417 12.90836828 -112.85468672 12.14696728 -112.8613348 11.36249352 C-113.02617144 8.55410694 -113.5375095 5.77494302 -114 3 C-204.42 2.67 -294.84 2.34 -388 2 C-388 38.63 -388 75.26 -388 113 C-388.66 113 -389.32 113 -390 113 C-390 76.7 -390 40.4 -390 3 C-426.3 3 -462.6 3 -500 3 C-500 2.34 -500 1.68 -500 1 C-452.33312076 0.87084966 -404.6662374 0.74332608 -356.99934843 0.61781773 C-351.29912614 0.60280756 -345.59890388 0.58778467 -339.89868164 0.57275391 C-338.76444895 0.56976329 -337.63021626 0.56677268 -336.46161289 0.56369144 C-320.61051772 0.52187086 -304.75942451 0.47936876 -288.90833266 0.43630803 C-261.58342412 0.36207852 -234.25851232 0.28919875 -206.93359375 0.21875 C-205.34028179 0.21463757 -205.34028179 0.21463757 -203.7147817 0.21044207 C-135.80972593 0.03540814 -67.90530308 -0.07992737 0 0 Z " fill="#75C1EE" transform="translate(500,387)"/>
<path d="M0 0 C36.96 0 73.92 0 112 0 C112 36.96 112 73.92 112 112 C111.34 112 110.68 112 110 112 C110 75.7 110 39.4 110 2 C73.7 2 37.4 2 0 2 C0 1.34 0 0.68 0 0 Z " fill="#83CBEE" transform="translate(0,388)"/>
<path d="M0 0 C0.33 0 0.66 0 1 0 C1.33 36.96 1.66 73.92 2 112 C-0.36648883 113.18324441 -1.7773132 113.12326046 -4.41653442 113.12025452 C-5.80899384 113.12231651 -5.80899384 113.12231651 -7.22958374 113.12442017 C-8.25097443 113.12082489 -9.27236511 113.11722961 -10.32470703 113.11352539 C-11.93448425 113.11374443 -11.93448425 113.11374443 -13.57678223 113.1139679 C-17.13714595 113.11326917 -20.69745787 113.10547861 -24.2578125 113.09765625 C-26.72118094 113.09579193 -29.18454976 113.09436809 -31.6479187 113.09336853 C-38.14167295 113.08954446 -44.63540495 113.07971511 -51.12915039 113.06866455 C-57.75146178 113.05844806 -64.37377676 113.0538704 -70.99609375 113.04882812 C-83.99740534 113.03809276 -96.99870149 113.021209 -110 113 C-110 112.01 -110 111.02 -110 110 C-73.7 110 -37.4 110 0 110 C0 73.7 0 37.4 0 0 Z " fill="#83CCF4" transform="translate(110,0)"/>
<path d="M0 0 C1.01037827 0.00222061 2.02075653 0.00444122 3.06175232 0.00672913 C4.77341331 0.00684242 4.77341331 0.00684242 6.51965332 0.00695801 C7.76129745 0.01211929 9.00294159 0.01728058 10.2822113 0.02259827 C12.17785072 0.02472069 12.17785072 0.02472069 14.11178589 0.02688599 C17.47705394 0.0315487 20.84225495 0.04053972 24.20750427 0.05158997 C27.63930175 0.06180606 31.07110614 0.06638403 34.50291443 0.07142639 C41.2405633 0.08248071 47.9781803 0.09923742 54.71580505 0.12025452 C55.65406994 3.29449035 55.83719754 6.13541233 55.82933044 9.43959045 C55.82925491 10.50038818 55.82917938 11.56118591 55.82910156 12.65412903 C55.82394028 13.79279419 55.81877899 14.93145935 55.8134613 16.10462952 C55.81204636 17.27536011 55.81063141 18.4460907 55.80917358 19.65229797 C55.80357595 23.39164281 55.79102385 27.13092778 55.77830505 30.87025452 C55.77328975 33.4054099 55.7687269 35.94056623 55.76463318 38.47572327 C55.75360729 44.69058744 55.73687149 50.9054167 55.71580505 57.12025452 C55.05580505 57.12025452 54.39580505 57.12025452 53.71580505 57.12025452 C53.71580505 39.30025452 53.71580505 21.48025452 53.71580505 3.12025452 C35.56580505 3.12025452 17.41580505 3.12025452 -1.28419495 3.12025452 C-1.28419495 20.94025452 -1.28419495 38.76025452 -1.28419495 57.12025452 C-1.61419495 57.12025452 -1.94419495 57.12025452 -2.28419495 57.12025452 C-2.43781015 49.83614573 -2.58599179 42.55194806 -2.72715855 35.26758671 C-2.79287417 31.88548781 -2.86048992 28.50344878 -2.93238831 25.12147522 C-3.01488621 21.23705674 -3.08922734 17.35250325 -3.1631012 13.46791077 C-3.19013626 12.24814041 -3.21717133 11.02837006 -3.24502563 9.77163696 C-3.27517006 8.0900071 -3.27517006 8.0900071 -3.30592346 6.37440491 C-3.32590897 5.38179153 -3.34589447 4.38917816 -3.3664856 3.3664856 C-3.254223 0.30213105 -3.06036843 0.16111721 0 0 Z " fill="#60BEE9" transform="translate(279.28419494628906,442.87974548339844)"/>
<path d="M0 0 C1.1009903 0.02009628 2.20198059 0.04019257 3.33633423 0.06089783 C5.12543716 0.10145042 5.12543716 0.10145042 6.95068359 0.14282227 C8.16863617 0.16643326 9.38658875 0.19004425 10.64144897 0.21437073 C14.5441209 0.29114476 18.44660122 0.37511009 22.34912109 0.45922852 C24.98973661 0.51243543 27.63036158 0.56517591 30.27099609 0.61743164 C36.7554905 0.74677848 43.23984179 0.88203498 49.72412109 1.02172852 C49.72412109 1.35172852 49.72412109 1.68172852 49.72412109 2.02172852 C31.90412109 2.02172852 14.08412109 2.02172852 -4.27587891 2.02172852 C-4.27587891 20.17172852 -4.27587891 38.32172852 -4.27587891 57.02172852 C22.45412109 56.52672852 22.45412109 56.52672852 49.72412109 56.02172852 C49.72412109 57.01172852 49.72412109 58.00172852 49.72412109 59.02172852 C31.24412109 58.69172852 12.76412109 58.36172852 -6.27587891 58.02172852 C-7.5615462 55.45039393 -7.39597669 53.62455751 -7.3894043 50.74584961 C-7.38932877 49.64485931 -7.38925323 48.54386902 -7.38917542 47.40951538 C-7.38401413 46.21678009 -7.37885284 45.0240448 -7.37353516 43.79516602 C-7.37212021 42.57721344 -7.37070526 41.35926086 -7.36924744 40.10440063 C-7.36363529 36.20181862 -7.3510807 32.29929329 -7.33837891 28.39672852 C-7.33336547 25.75610434 -7.32880229 23.11547927 -7.32470703 20.47485352 C-7.31366191 13.99045907 -7.29691192 7.50609784 -7.27587891 1.02172852 C-4.68737974 -0.27252107 -2.8965719 -0.0595186 0 0 Z " fill="#69C2EB" transform="translate(450.27587890625,275.978271484375)"/>
<path d="M0 0 C0.66 0 1.32 0 2 0 C2.33 36.3 2.66 72.6 3 110 C1.515 110.495 1.515 110.495 0 111 C0 74.37 0 37.74 0 0 Z " fill="#50ADE7" transform="translate(111,0)"/>
<path d="M0 0 C0.97484848 0.00222061 1.94969696 0.00444122 2.9540863 0.00672913 C4.05515213 0.00680466 5.15621796 0.00688019 6.29064941 0.00695801 C8.08749428 0.01469994 8.08749428 0.01469994 9.92063904 0.02259827 C11.14000656 0.02401321 12.35937408 0.02542816 13.61569214 0.02688599 C17.52856349 0.03250485 21.4413786 0.04506055 25.35423279 0.05775452 C27.99941426 0.06276709 30.64459662 0.06733041 33.28977966 0.07142639 C39.79045005 0.08248041 46.2910874 0.09923688 52.79173279 0.12025452 C52.79173279 1.11025452 52.79173279 2.10025452 52.79173279 3.12025452 C34.64173279 3.12025452 16.49173279 3.12025452 -2.20826721 3.12025452 C-2.20826721 20.94025452 -2.20826721 38.76025452 -2.20826721 57.12025452 C-2.53826721 57.12025452 -2.86826721 57.12025452 -3.20826721 57.12025452 C-3.23139637 49.83603903 -3.24918522 42.55183142 -3.26007938 35.26758671 C-3.26530696 31.88553639 -3.27240232 28.50351112 -3.28370667 25.12147522 C-3.29660988 21.23695674 -3.30149645 17.35244855 -3.30592346 13.46791077 C-3.31108475 12.24814041 -3.31624603 11.02837006 -3.32156372 9.77163696 C-3.32163925 8.65055038 -3.32171478 7.52946381 -3.3217926 6.37440491 C-3.32401321 5.38179153 -3.32623383 4.38917816 -3.32852173 3.3664856 C-3.16733828 0.35574405 -3.00940907 0.1638819 0 0 Z " fill="#6FC9EF" transform="translate(169.20826721191406,442.87974548339844)"/>
<path d="M0 0 C0.33 0 0.66 0 1 0 C1 17.82 1 35.64 1 54 C19.15 54 37.3 54 56 54 C56 54.99 56 55.98 56 57 C48.18547248 57.02526563 40.37095542 57.04283105 32.55639648 57.05493164 C29.89558519 57.05997383 27.23477668 57.06680736 24.57397461 57.07543945 C20.75894484 57.08751009 16.94395156 57.09322929 13.12890625 57.09765625 C11.33206139 57.10539818 11.33206139 57.10539818 9.49891663 57.11329651 C7.84731789 57.11340981 7.84731789 57.11340981 6.16235352 57.11352539 C4.7000808 57.11685631 4.7000808 57.11685631 3.20826721 57.12025452 C1 57 1 57 0 56 C-0.09365006 54.2507128 -0.11744438 52.49763746 -0.11352539 50.74584961 C-0.11344986 49.62476303 -0.11337433 48.50367645 -0.11329651 47.34861755 C-0.10813522 46.1288472 -0.10297394 44.90907684 -0.09765625 43.65234375 C-0.0962413 42.41078018 -0.09482635 41.16921661 -0.09336853 39.89002991 C-0.08870591 36.58394509 -0.07971497 33.27792854 -0.06866455 29.97186279 C-0.05844827 26.6003885 -0.05387045 23.22890717 -0.04882812 19.85742188 C-0.03777395 13.23826225 -0.02101736 6.61913507 0 0 Z " fill="#7CC6EE" transform="translate(166,0)"/>
</svg>
